<?xml version="1.0" encoding="utf-8"?>
<!-- Generator: Adobe Illustrator 13.0.0, SVG Export Plug-In . SVG Version: 6.00 Build 14948)  -->
<!DOCTYPE svg PUBLIC "-//W3C//DTD SVG 1.1//EN" "http://www.w3.org/Graphics/SVG/1.1/DTD/svg11.dtd">
<svg version="1.1" id="Layer_1" xmlns="http://www.w3.org/2000/svg" xmlns:xlink="http://www.w3.org/1999/xlink" x="0px" y="0px"
	 width="702.977px" height="702.961px" viewBox="0 0 702.977 702.961" enable-background="new 0 0 702.977 702.961"
	 xml:space="preserve">
<path fill-rule="evenodd" clip-rule="evenodd" fill="#F9C218" d="M351.484,0c193.594,0,351.492,157.891,351.492,351.484
	S545.078,702.961,351.484,702.961C157.898,702.961,0,545.078,0,351.484S157.898,0,351.484,0"/>
<path fill-rule="evenodd" clip-rule="evenodd" fill="#113C85" d="M390.219,669.914l9.57-1.852l0.062,0.344
	c0.461,2.383,1.492,4.18,3.047,5.383c1.586,1.195,3.422,1.602,5.5,1.195c2.297-0.445,4.016-1.625,5.133-3.539
	c1.125-1.891,1.438-4.164,0.914-6.766c-0.5-2.641-1.672-4.484-3.539-5.516c-1.859-1.039-4.367-1.258-7.508-0.648
	c-0.125,0.031-0.375,0.086-0.695,0.164c-0.328,0.109-0.562,0.164-0.734,0.195l-1.648-8.477c0.172-0.031,0.406-0.062,0.711-0.102
	c0.32-0.031,0.547-0.07,0.672-0.094c2.133-0.414,3.625-1.133,4.453-2.172c0.836-1.047,1.078-2.477,0.727-4.297
	c-0.297-1.492-0.914-2.602-1.844-3.273c-0.938-0.688-2.102-0.883-3.469-0.625c-1.258,0.242-2.133,0.867-2.664,1.844
	c-0.516,0.984-0.672,2.266-0.438,3.828l-8.852,1.719c-0.812-4.148-0.227-7.727,1.758-10.734c1.977-3.016,4.992-4.914,9.023-5.688
	c3.578-0.695,6.875-0.055,9.859,1.977c2.992,2.016,4.836,4.773,5.5,8.273c0.414,2.078,0.359,3.984-0.164,5.68
	c-0.516,1.711-1.523,3.344-3.023,4.852c3.18,0.766,5.719,2.133,7.609,4.133c1.875,2,3.141,4.664,3.781,8
	c0.438,2.227,0.492,4.344,0.148,6.336c-0.344,2-1.086,3.984-2.227,5.961c-1.375,2.352-2.938,4.156-4.68,5.398
	c-1.758,1.242-4,2.141-6.742,2.664c-5.281,1.023-9.711,0.297-13.266-2.172c-3.562-2.453-5.875-6.383-6.93-11.773L390.219,669.914z
	 M358.594,659.367c-1.961-0.984-3.516-2.328-4.711-4.023c-1.18-1.688-1.852-3.602-2.039-5.719c-0.328-3.75,0.82-7.117,3.469-10.062
	c2.641-2.953,6-4.609,10.102-4.961c4.312-0.383,8.031,0.633,11.141,3.031c3.117,2.414,4.859,5.555,5.195,9.445
	c0.195,2.195-0.148,4.188-1.031,5.992c-0.867,1.812-2.25,3.375-4.148,4.727c2.984,1.188,5.266,2.828,6.844,4.875
	c1.586,2.055,2.516,4.562,2.758,7.523c0.438,4.969-0.844,9.141-3.836,12.594c-2.992,3.43-7.094,5.375-12.273,5.82
	c-4.875,0.438-9.078-0.812-12.625-3.766c-3.531-2.93-5.516-6.805-5.93-11.602c-0.25-2.828,0.203-5.352,1.359-7.617
	C354.023,663.383,355.93,661.297,358.594,659.367 M361.672,672.781c0.188,2.133,1.016,3.828,2.5,5.133
	c1.469,1.305,3.211,1.883,5.18,1.711c2.117-0.188,3.805-1.055,5.055-2.594c1.25-1.555,1.781-3.406,1.602-5.578
	c-0.203-2.289-1.039-4.078-2.477-5.305c-1.461-1.242-3.305-1.766-5.578-1.57c-2.102,0.188-3.727,1.031-4.883,2.508
	C361.938,668.57,361.469,670.469,361.672,672.781 M361.969,649.102c0.125,1.508,0.688,2.68,1.656,3.531
	c0.977,0.859,2.18,1.242,3.602,1.117c1.531-0.133,2.68-0.703,3.477-1.695c0.789-1.008,1.102-2.328,0.977-3.945
	c-0.148-1.531-0.695-2.727-1.688-3.602c-0.953-0.898-2.164-1.266-3.594-1.148c-1.422,0.117-2.562,0.719-3.383,1.797
	C362.172,646.211,361.82,647.539,361.969,649.102 M321.297,657.086c-1.766-1.297-3.07-2.891-3.938-4.766s-1.211-3.875-1.023-6
	c0.328-3.742,2.047-6.859,5.172-9.297c3.109-2.453,6.711-3.5,10.805-3.141c4.297,0.383,7.797,2.016,10.445,4.93
	c2.648,2.906,3.812,6.305,3.477,10.203c-0.195,2.188-0.867,4.086-2.047,5.727c-1.164,1.625-2.805,2.922-4.914,3.922
	c2.727,1.688,4.688,3.695,5.906,5.992c1.188,2.297,1.656,4.93,1.391,7.898c-0.422,4.953-2.406,8.859-5.961,11.719
	c-3.539,2.867-7.914,4.07-13.102,3.609c-4.867-0.414-8.789-2.383-11.773-5.891c-2.977-3.508-4.25-7.656-3.828-12.484
	c0.242-2.812,1.133-5.219,2.672-7.242C316.094,660.25,318.344,658.516,321.297,657.086 M326.406,647.57
	c-0.141,1.5,0.203,2.766,1.016,3.773c0.805,1.023,1.922,1.586,3.359,1.719c1.508,0.125,2.766-0.227,3.703-1.07
	c0.953-0.859,1.5-2.094,1.641-3.719c0.133-1.516-0.211-2.805-1.016-3.828c-0.797-1.047-1.93-1.633-3.352-1.773
	c-1.422-0.117-2.648,0.273-3.648,1.195C327.117,644.758,326.531,646.008,326.406,647.57 M322,670.844
	c-0.188,2.117,0.336,3.945,1.555,5.484c1.234,1.539,2.844,2.406,4.812,2.578c2.117,0.18,3.945-0.375,5.43-1.695
	c1.508-1.289,2.359-3.016,2.547-5.188c0.203-2.305-0.305-4.188-1.516-5.664c-1.227-1.469-2.945-2.312-5.211-2.508
	c-2.109-0.188-3.867,0.359-5.25,1.633C322.984,666.742,322.195,668.531,322,670.844 M300.18,685.297l-9.633-1.867l8.484-43.625
	l-8.93-1.734l1.469-7.562l18.555,3.602L300.18,685.297z M133.75,608.141l-7.328-7.094l20.891-21.633
	c3.258-3.383,5.164-6.078,5.734-8.086c0.555-2.008-0.031-3.836-1.766-5.508c-1.734-1.68-3.594-2.195-5.57-1.57
	c-1.992,0.633-4.609,2.625-7.883,6.023l-20.891,21.625l-7.336-7.094L132.586,561c2.547-2.641,4.609-4.477,6.18-5.523
	c1.57-1.031,3.18-1.711,4.836-2.047c2.828-0.602,5.453-0.5,7.875,0.258c2.445,0.789,4.82,2.297,7.133,4.539
	c2.32,2.234,3.914,4.547,4.781,6.961c0.852,2.414,1.039,5.031,0.547,7.875c-0.281,1.664-0.852,3.25-1.766,4.773
	c-0.906,1.508-2.711,3.688-5.43,6.484L133.75,608.141z M132.938,532.625l5.898,7.023l-7.523,6.305l-5.891-7.016L132.938,532.625z
	 M114.953,536.5l-5.375-7.609l0.617-0.438c1.805-1.25,2.914-2.734,3.328-4.438c0.445-1.695,0.109-3.312-0.977-4.891
	c-1.195-1.688-2.625-2.656-4.32-2.93c-1.688-0.273-3.398,0.195-5.117,1.406c-2.75,1.922-3.344,5.281-1.773,10.07
	c0.195,0.609,0.352,1.117,0.469,1.469c1.289,4.047,1.539,7.539,0.758,10.492c-0.789,2.93-2.641,5.414-5.555,7.453
	c-4,2.812-8,3.945-11.977,3.445c-3.984-0.539-7.266-2.633-9.852-6.328c-2.422-3.461-3.273-6.984-2.539-10.547
	c0.703-3.547,2.93-6.828,6.664-9.781l5.305,7.562l-0.352,0.242c-1.375,0.969-2.195,2.156-2.461,3.562
	c-0.266,1.398,0.07,2.766,1,4.102c0.961,1.375,2.133,2.148,3.555,2.32c1.422,0.188,2.867-0.219,4.352-1.258
	c0.617-0.438,1.117-0.906,1.484-1.422c0.375-0.492,0.625-1.047,0.758-1.68c0.32-1.422-0.07-3.711-1.172-6.875
	c-0.516-1.383-0.891-2.461-1.102-3.258c-1.055-3.625-1.148-6.789-0.266-9.492c0.875-2.688,2.773-5.047,5.664-7.094
	c4.391-3.078,8.781-4.32,13.164-3.766c4.383,0.594,8,2.906,10.828,6.953c2.664,3.812,3.531,7.797,2.602,11.953
	C121.727,529.859,119.156,533.453,114.953,536.5 M101.617,485.508l4.445,8.023l-8.586,4.75l-4.438-8.016L101.617,485.508z
	 M77.391,426.852l2.273,9.844l-50.805,11.719l-3.047-13.141l33.969-21.445l-39.914-4.359l-3.047-13.141l50.812-11.734l2.266,9.797
	l-36.961,8.188l39.844,4.312l1.734,7.508l-33.922,21.391L77.391,426.852z M67.953,347.562v28.141H15.82v-28.141h9.164v18.055h11.898
	v-18.055h9.016v18.055h12.898v-18.055H67.953z M41.805,326.562L42,324.305c0.367-4.102-0.102-7.297-1.406-9.555
	c-1.297-2.258-3.383-3.516-6.242-3.766c-2.742-0.242-4.859,0.484-6.32,2.148c-1.461,1.672-2.367,4.398-2.695,8.18l-0.328,3.781
	L41.805,326.562z M68.492,328.898l-0.883,10.164l-51.953-4.547l1.086-12.352c0.344-3.914,0.734-6.828,1.188-8.719
	c0.438-1.883,1.023-3.477,1.766-4.789c1.625-2.82,3.75-4.906,6.359-6.234c2.602-1.328,5.57-1.844,8.898-1.547
	c4.031,0.344,7.336,1.758,9.93,4.219c2.609,2.445,4.125,5.609,4.555,9.477l21.289-11.219l-1.055,12.133l-25.297,11.297
	L68.492,328.898z M72.523,298.031l-50.797-11.734l2.297-9.938l50.805,11.727L72.523,298.031z M34.102,239.062l8.773,2.68
	l-2.867,9.391l41.094,12.555l-2.977,9.734l-41.094-12.562l-2.867,9.375l-8.766-2.672L34.102,239.062z M88.844,205.016l5.172-7.734
	l0.641,0.422c1.805,1.219,3.586,1.727,5.328,1.516c1.734-0.195,3.133-1.102,4.203-2.68c1.156-1.703,1.547-3.383,1.195-5.07
	c-0.344-1.664-1.406-3.102-3.141-4.281c-2.789-1.875-6.133-1.227-10.031,1.961c-0.516,0.398-0.922,0.727-1.211,0.969
	c-3.32,2.641-6.492,4.133-9.516,4.453c-3.031,0.32-6.016-0.523-8.969-2.508c-4.047-2.734-6.539-6.047-7.492-9.953
	c-0.938-3.898-0.141-7.719,2.375-11.461c2.367-3.5,5.336-5.547,8.922-6.148c3.586-0.617,7.438,0.281,11.539,2.711l-5.18,7.664
	l-0.352-0.242c-1.383-0.945-2.789-1.273-4.195-1.016s-2.562,1.062-3.477,2.398c-0.938,1.398-1.234,2.773-0.898,4.156
	c0.328,1.391,1.242,2.594,2.742,3.602c0.641,0.438,1.25,0.734,1.852,0.883c0.602,0.164,1.211,0.195,1.844,0.109
	c1.445-0.219,3.438-1.398,6-3.555c1.117-0.984,1.992-1.711,2.648-2.203c3.008-2.289,5.93-3.508,8.766-3.641
	c2.82-0.148,5.719,0.766,8.648,2.742c4.453,3,7.188,6.648,8.227,10.945s0.164,8.492-2.594,12.594
	c-2.609,3.852-6.016,6.094-10.234,6.703C97.453,208.977,93.18,207.859,88.844,205.016 M120.5,156.016l14.586,11.812l-6.43,7.922
	l-14.578-11.805l-35.344-9.398l7.062-8.711l23.125,7.109l-11.812-21.078l7-8.664L120.5,156.016z M133.391,144.477l6.781-6.375
	l0.516,0.547c1.492,1.594,3.109,2.492,4.859,2.68c1.727,0.195,3.297-0.367,4.695-1.656c1.508-1.406,2.266-2.961,2.32-4.688
	c0.016-1.695-0.68-3.328-2.109-4.859c-2.305-2.469-5.711-2.586-10.227-0.352c-0.57,0.273-1.055,0.492-1.383,0.656
	c-3.844,1.844-7.266,2.57-10.273,2.211c-3.023-0.367-5.75-1.859-8.172-4.461c-3.344-3.578-5.023-7.375-5.07-11.391
	c-0.031-4.016,1.602-7.547,4.891-10.625c3.094-2.883,6.453-4.211,10.086-3.992c3.633,0.211,7.172,1.953,10.617,5.242l-6.758,6.305
	l-0.297-0.32c-1.133-1.219-2.414-1.867-3.852-1.93c-1.438-0.07-2.734,0.445-3.922,1.555c-1.234,1.156-1.836,2.422-1.828,3.844
	c0.023,1.43,0.641,2.82,1.867,4.141c0.531,0.555,1.062,0.977,1.617,1.273c0.539,0.289,1.125,0.453,1.766,0.508
	c1.469,0.125,3.656-0.578,6.641-2.117c1.312-0.695,2.328-1.203,3.078-1.539c3.438-1.555,6.57-2.078,9.375-1.578
	c2.781,0.492,5.391,2.031,7.805,4.617c3.648,3.922,5.508,8.094,5.547,12.523c0.039,4.414-1.75,8.312-5.359,11.68
	c-3.414,3.172-7.227,4.578-11.477,4.234C140.883,150.258,136.969,148.211,133.391,144.477 M160.891,73.93l5.648,7.219l-7.734,6.047
	l26.453,33.875l-8.016,6.25l-26.453-33.867l-7.734,6.047l-5.641-7.219L160.891,73.93z M222.422,98.836l-24.609,13.648
	l-25.297-45.602l24.625-13.648l4.438,8.023L185.797,70l5.773,10.398l15.781-8.75l4.375,7.891l-15.781,8.758l6.234,11.266
	l15.797-8.742L222.422,98.836z M238.609,89.094l-9.656,2.953l-15.234-49.859l12.898-3.945l23.773,32.391l1.547-40.133l12.898-3.945
	l15.25,49.859l-9.625,2.945l-10.727-36.297l-1.539,40.039l-7.359,2.266l-23.703-32.344L238.609,89.094z M282.641,58.82l9.188-1.5
	l0.125,0.75c0.336,2.156,1.18,3.82,2.523,4.93c1.328,1.141,2.945,1.555,4.828,1.258c2.031-0.32,3.539-1.18,4.531-2.594
	c0.984-1.383,1.305-3.133,0.984-5.211c-0.531-3.312-3.289-5.32-8.289-6c-0.633-0.094-1.156-0.18-1.516-0.227
	c-4.211-0.625-7.453-1.922-9.75-3.922c-2.305-1.992-3.734-4.75-4.281-8.266c-0.773-4.836-0.039-8.914,2.164-12.273
	c2.219-3.336,5.547-5.367,10-6.078c4.172-0.648,7.703,0.117,10.586,2.336c2.891,2.203,4.852,5.633,5.883,10.273l-9.133,1.453
	l-0.07-0.422c-0.258-1.648-0.969-2.906-2.109-3.758c-1.156-0.859-2.523-1.164-4.133-0.906c-1.656,0.25-2.859,0.984-3.648,2.172
	c-0.797,1.195-1.047,2.68-0.766,4.461c0.125,0.766,0.32,1.414,0.617,1.969c0.281,0.547,0.688,1.016,1.172,1.414
	c1.148,0.906,3.375,1.562,6.703,1.969c1.469,0.141,2.602,0.281,3.414,0.438c3.719,0.633,6.602,1.938,8.648,3.914
	c2.031,1.977,3.328,4.711,3.883,8.203c0.844,5.297,0.047,9.797-2.398,13.477c-2.43,3.695-6.102,5.922-10.977,6.695
	c-4.602,0.727-8.555-0.242-11.875-2.914C285.625,67.812,283.523,63.922,282.641,58.82 M377.586,39.906l2.688,0.188
	c2.844,0.188,5.055-0.266,6.656-1.383c1.594-1.125,2.469-2.82,2.641-5.109c0.164-2.359-0.461-4.172-1.828-5.422
	c-1.391-1.266-3.57-1.992-6.555-2.211l-2.609-0.172L377.586,39.906z M375.586,68.656l-10.18-0.703l3.633-52.016l12.938,0.906
	c3.281,0.227,5.859,0.602,7.719,1.078c1.867,0.492,3.367,1.164,4.492,2.039c2.023,1.602,3.586,3.633,4.633,6.102
	c1.062,2.477,1.5,5.062,1.305,7.773c-0.336,4.969-2.266,8.836-5.758,11.586c-3.484,2.75-8.023,3.93-13.594,3.531l-3.797-0.258
	L375.586,68.656z M418.578,48.141l2.195,0.469c4.039,0.852,7.266,0.773,9.672-0.242c2.398-1.008,3.891-2.922,4.5-5.727
	c0.562-2.703,0.117-4.891-1.367-6.547c-1.477-1.656-4.07-2.875-7.797-3.672l-3.695-0.789L418.578,48.141z M413,74.344l-9.984-2.125
	l10.844-51.008l12.133,2.578c3.836,0.82,6.695,1.562,8.508,2.242c1.82,0.664,3.328,1.445,4.547,2.328
	c2.602,1.977,4.398,4.336,5.398,7.086c1.016,2.742,1.148,5.758,0.461,9.031c-0.836,3.945-2.633,7.055-5.391,9.336
	c-2.75,2.289-6.07,3.406-9.977,3.352l8.547,22.508l-11.922-2.539l-8.125-26.469L413,74.344z M462.203,61.07
	c-0.914,2.047-1.445,4.102-1.539,6.172c-0.109,2.062,0.18,4.125,0.836,6.188c0.773,2.234,1.875,4.203,3.352,5.891
	c1.477,1.68,3.195,2.961,5.188,3.852c4.164,1.852,8.32,1.93,12.461,0.219c4.148-1.711,7.203-4.773,9.172-9.211
	c1.812-4.055,1.938-8.148,0.367-12.289s-4.352-7.086-8.344-8.867c-4.164-1.852-8.336-1.992-12.508-0.438
	C467.008,54.164,464.016,56.992,462.203,61.07 M452.273,57.031c1.164-2.617,2.602-4.93,4.336-6.938
	c1.727-2.008,3.742-3.734,6.016-5.148c3.898-2.383,8.016-3.695,12.398-3.984c4.375-0.281,8.695,0.516,12.898,2.391
	c3.156,1.406,5.922,3.375,8.32,5.906c2.406,2.516,4.242,5.453,5.531,8.766c1.312,3.438,1.938,6.914,1.852,10.43
	s-0.844,6.914-2.289,10.188c-1.523,3.391-3.516,6.336-6.031,8.805c-2.484,2.477-5.375,4.352-8.68,5.656
	c-3.367,1.406-6.875,2.07-10.492,2.016c-3.617-0.062-7.086-0.82-10.398-2.305c-3.562-1.586-6.547-3.664-8.969-6.258
	c-2.422-2.586-4.234-5.641-5.438-9.164c-1.18-3.352-1.68-6.758-1.531-10.18C449.953,63.766,450.773,60.367,452.273,57.031
	 M546.125,77.07l-4.984,7.695l-8.242-5.344l-23.391,36.023l-8.531-5.523l23.391-36.047l-8.227-5.344l4.992-7.695L546.125,77.07z
	 M542.461,141.766l-21.242-18.469l34.203-39.352l21.242,18.469l-6.008,6.914l-13.625-11.836l-7.797,8.969l13.617,11.852
	l-5.914,6.805l-13.625-11.844L534.852,123l13.625,11.844L542.461,141.766z M609.492,159l-8.344-9.266
	c0.492-2.445,0.438-4.758-0.18-6.93c-0.633-2.195-1.805-4.258-3.547-6.195c-1.406-1.555-3.039-2.781-4.883-3.641
	c-1.852-0.883-3.812-1.352-5.922-1.438c-2.203-0.086-4.359,0.227-6.453,0.977c-2.109,0.773-3.969,1.859-5.578,3.32
	c-3.547,3.195-5.492,7.016-5.844,11.453c-0.367,4.453,0.953,8.328,3.938,11.625c1.703,1.906,3.594,3.289,5.672,4.172
	c2.078,0.867,4.203,1.172,6.398,0.906l8.375,9.289c-5.594,1.75-10.734,2-15.445,0.781s-8.953-3.938-12.711-8.133
	c-2.617-2.898-4.461-6.086-5.562-9.555c-1.109-3.469-1.43-7.148-0.977-11.094c0.328-3.289,1.289-6.422,2.852-9.367
	c1.555-2.945,3.68-5.625,6.344-8.016c2.695-2.438,5.719-4.227,9.062-5.383c3.344-1.148,6.914-1.625,10.688-1.43
	c3.547,0.219,6.812,1.047,9.844,2.5c3,1.438,5.711,3.477,8.086,6.133c3.82,4.234,6.078,8.766,6.75,13.602
	C612.758,148.133,611.883,153.367,609.492,159 M642.836,182.703l-7.695,4.984l-5.336-8.219l-36.039,23.398l-5.539-8.531
	l36.039-23.406l-5.352-8.234l7.688-4.984L642.836,182.703z M600.75,216l46.047-24.469l4.773,9l-46.023,24.477L600.75,216z
	 M638.773,232.18c-2.141,0.688-4.016,1.688-5.609,2.984c-1.625,1.305-2.961,2.898-4.039,4.773c-1.148,2.055-1.867,4.203-2.141,6.422
	c-0.266,2.227-0.062,4.375,0.594,6.422c1.414,4.352,4.133,7.484,8.195,9.43c4.039,1.938,8.359,2.148,12.977,0.656
	c4.219-1.375,7.352-4.031,9.383-7.969c2.016-3.93,2.352-7.969,0.992-12.133c-1.406-4.328-4.078-7.523-8.047-9.578
	C647.117,231.133,643.016,230.797,638.773,232.18 M635.133,222.094c2.703-0.883,5.398-1.352,8.055-1.406
	c2.664-0.062,5.273,0.281,7.852,1.031c4.367,1.281,8.117,3.477,11.25,6.547c3.148,3.062,5.445,6.789,6.867,11.164
	c1.055,3.297,1.453,6.68,1.172,10.148c-0.266,3.469-1.211,6.797-2.82,9.977c-1.664,3.281-3.828,6.062-6.508,8.359
	c-2.656,2.289-5.711,4-9.109,5.102c-3.523,1.156-7.062,1.633-10.57,1.422c-3.5-0.195-6.828-1.086-10-2.672
	c-3.312-1.562-6.148-3.719-8.539-6.453c-2.359-2.711-4.109-5.805-5.234-9.266c-1.195-3.688-1.656-7.305-1.359-10.852
	c0.312-3.539,1.367-6.914,3.18-10.18c1.703-3.109,3.883-5.758,6.547-7.945C628.578,224.891,631.648,223.227,635.133,222.094
	 M630.211,297.391l-1.734-9.875l51.344-9.055l1.688,9.523l-29.055,27.023l32.789-5.789l1.742,9.836l-51.352,9.055l-1.641-9.312
	L664,291.438L630.211,297.391z M663.734,392.977l-0.148,1.164c-0.336,2.797-0.094,4.945,0.75,6.445
	c0.828,1.484,2.258,2.359,4.281,2.609c1.938,0.234,3.453-0.25,4.547-1.422c1.062-1.18,1.781-3.156,2.117-5.906l0.188-1.461
	L663.734,392.977z M641.906,390.281l-0.383,3.07c-0.375,3.07-0.125,5.398,0.727,6.961c0.852,1.578,2.352,2.5,4.516,2.766
	c2.344,0.281,4.219-0.25,5.625-1.625c1.375-1.359,2.258-3.523,2.617-6.445l0.367-3.055L641.906,390.281z M634,379.43l51.758,6.359
	l-1.375,11.117c-0.266,2.258-0.578,4.031-0.93,5.344c-0.328,1.297-0.789,2.445-1.336,3.406c-1.492,2.695-3.438,4.68-5.797,5.922
	c-2.375,1.242-5,1.695-7.93,1.344c-2.414-0.305-4.43-1.016-6.016-2.117c-1.609-1.125-2.727-2.602-3.391-4.453
	c-1.062,2.453-2.781,4.289-5.102,5.484c-2.344,1.203-5.008,1.641-7.992,1.258c-2.414-0.281-4.633-1.023-6.633-2.172
	c-2.016-1.164-3.633-2.625-4.828-4.383c-1.141-1.758-1.875-3.648-2.188-5.672c-0.336-2.039-0.273-4.867,0.172-8.453L634,379.43z
	 M651.398,433.75c-2.117-0.742-4.219-1.078-6.281-0.992c-2.07,0.062-4.102,0.531-6.086,1.375c-2.164,0.953-4.023,2.242-5.586,3.844
	c-1.539,1.609-2.695,3.445-3.383,5.5c-1.492,4.305-1.203,8.469,0.875,12.445c2.039,3.977,5.375,6.742,9.969,8.336
	c4.195,1.438,8.289,1.195,12.273-0.719c3.977-1.922,6.672-4.953,8.094-9.078c1.492-4.32,1.273-8.477-0.656-12.5
	C658.695,437.93,655.617,435.195,651.398,433.75 M654.555,423.5c2.703,0.938,5.133,2.172,7.289,3.734
	c2.148,1.539,4.047,3.383,5.641,5.523c2.719,3.664,4.391,7.672,5.055,12.016c0.672,4.328,0.266,8.68-1.242,13.047
	c-1.125,3.266-2.859,6.211-5.164,8.812c-2.297,2.609-5.07,4.695-8.258,6.273c-3.312,1.602-6.711,2.523-10.234,2.75
	c-3.492,0.242-6.961-0.227-10.336-1.398c-3.523-1.211-6.625-2.953-9.297-5.234c-2.688-2.258-4.805-4.984-6.398-8.148
	c-1.688-3.242-2.656-6.664-2.93-10.289c-0.25-3.594,0.203-7.125,1.398-10.562c1.266-3.672,3.094-6.828,5.469-9.477
	c2.352-2.625,5.242-4.703,8.648-6.219c3.227-1.461,6.562-2.266,10-2.398C647.641,421.789,651.102,422.312,654.555,423.5
	 M617.078,500.016l17.758,2.141l-12.102-13.234L617.078,500.016z M615.703,481.406l-7.898-8.562l4.805-9.43l37.266,41.719
	l-3.992,7.844l-55.516-5.914l4.961-9.734l11.602,1.312L615.703,481.406z M603.875,533.398l-1.398,1.789
	c-2.523,3.242-3.867,6.188-4.016,8.781c-0.133,2.609,0.906,4.781,3.18,6.562c2.18,1.688,4.344,2.242,6.492,1.641
	c2.125-0.602,4.359-2.398,6.703-5.398l2.336-2.977L603.875,533.398z M582.773,516.906l6.281-8.031l41.078,32.094l-7.633,9.766
	c-2.422,3.109-4.328,5.336-5.727,6.68c-1.391,1.336-2.758,2.344-4.086,3.047c-2.922,1.477-5.844,2.078-8.758,1.773
	c-2.898-0.305-5.672-1.5-8.297-3.562c-3.188-2.484-5.195-5.461-6.031-8.945c-0.852-3.461-0.398-6.938,1.359-10.43l-23.992-2.188
	l7.523-9.602l27.359,4.305L582.773,516.906z M556.773,559.766c-4.07,3.922-6.109,7.82-6.102,11.68
	c-0.008,3.844,2.047,7.883,6.148,12.133c3.758,3.898,7.742,5.906,11.93,6.047c4.188,0.117,8.195-1.641,11.953-5.281l4.805-4.625
	l-23.852-24.68L556.773,559.766z M550.109,553.781l12.727-12.305l36.234,37.492l-12.547,12.117
	c-3.398,3.281-6.445,5.562-9.164,6.859c-2.695,1.289-5.672,1.922-8.898,1.922c-3.43-0.016-6.773-0.789-10.047-2.359
	c-3.258-1.555-6.367-3.859-9.297-6.898c-3.273-3.398-5.586-7.047-6.906-10.977c-1.328-3.906-1.617-7.898-0.859-11.992
	c0.391-2.328,1.227-4.539,2.516-6.594C545.141,558.953,547.219,556.562,550.109,553.781 M351.484,0
	c193.594,0,351.492,157.891,351.492,351.484S545.078,702.961,351.484,702.961C157.898,702.961,0,545.078,0,351.484
	S157.898,0,351.484,0 M255.414,218.156l75.242,251.891v-46v-34.039v-34.023v-34.047v-34.039v-34.023v-34.039v-1.68H255.414z
	 M352.891,85.766c145.727,0.766,264.336,119.82,264.336,265.719c0,48.148-12.938,93.391-35.492,132.406L479.828,176.508h-2.125
	v-0.023H372.32v-24.719v-37.375L352.891,85.766z M579.414,487.812c-43.156,71.789-119.234,121.711-207.094,128.57v-22.156v-34.031
	v-34.039v-34.039v-4.305H579.414z M330.656,616.383c-87.859-6.859-163.938-56.781-207.094-128.57h207.094v4.305v34.039v34.039
	v34.031V616.383z M121.234,483.891C98.68,444.875,85.75,399.633,85.75,351.484c0-145.898,118.617-264.953,264.336-265.719
	l-19.43,28.625v37.375v24.719H225.266v0.023h-2.117L121.234,483.891z M372.32,470.047l75.227-251.891H372.32v1.68v34.039v34.023
	v34.039v34.047v34.023v34.039V470.047z M470.594,283.031l50.789,163.102H419.805L470.594,283.031z M232.383,283.031l50.789,163.102
	H181.594L232.383,283.031z"/>
</svg>
